<mxfile host="app.diagrams.net" agent="Mozilla/5.0 (Windows NT 10.0; Win64; x64) AppleWebKit/537.36 (KHTML, like Gecko) Chrome/138.0.0.0 Safari/537.36 Edg/138.0.0.0" version="27.2.0">
  <diagram name="Page-1" id="5bNC3NUiAO7fr8K-680Z">
    <mxGraphModel dx="1037" dy="613" grid="1" gridSize="10" guides="1" tooltips="1" connect="1" arrows="1" fold="1" page="1" pageScale="1" pageWidth="850" pageHeight="1100" math="0" shadow="0">
      <root>
        <mxCell id="0" />
        <mxCell id="1" parent="0" />
        <mxCell id="x3BcfAPWwikc5Mpsq-v--2" value="&lt;span&gt;FFN&lt;/span&gt;" style="rounded=1;whiteSpace=wrap;html=1;fillColor=#FFE189;fontStyle=0;fontSize=11;" vertex="1" parent="1">
          <mxGeometry x="140" y="90" width="100" height="40" as="geometry" />
        </mxCell>
        <mxCell id="x3BcfAPWwikc5Mpsq-v--4" value="" style="edgeStyle=orthogonalEdgeStyle;rounded=0;orthogonalLoop=1;jettySize=auto;html=1;fontStyle=0;fontSize=11;" edge="1" parent="1" source="x3BcfAPWwikc5Mpsq-v--3" target="x3BcfAPWwikc5Mpsq-v--2">
          <mxGeometry relative="1" as="geometry" />
        </mxCell>
        <mxCell id="x3BcfAPWwikc5Mpsq-v--3" value="Normalization" style="rounded=1;whiteSpace=wrap;html=1;fontStyle=0;fillColor=#D4AAFF;fontSize=11;" vertex="1" parent="1">
          <mxGeometry x="140" y="150" width="100" height="20" as="geometry" />
        </mxCell>
        <mxCell id="x3BcfAPWwikc5Mpsq-v--29" style="edgeStyle=orthogonalEdgeStyle;rounded=0;orthogonalLoop=1;jettySize=auto;html=1;" edge="1" parent="1" source="x3BcfAPWwikc5Mpsq-v--6">
          <mxGeometry relative="1" as="geometry">
            <mxPoint x="270" y="40" as="targetPoint" />
          </mxGeometry>
        </mxCell>
        <mxCell id="x3BcfAPWwikc5Mpsq-v--6" value="" style="verticalLabelPosition=bottom;verticalAlign=top;html=1;shape=mxgraph.flowchart.summing_function;fontStyle=0" vertex="1" parent="1">
          <mxGeometry x="260" y="60" width="20" height="20" as="geometry" />
        </mxCell>
        <mxCell id="x3BcfAPWwikc5Mpsq-v--7" style="edgeStyle=orthogonalEdgeStyle;rounded=0;orthogonalLoop=1;jettySize=auto;html=1;fontStyle=0" edge="1" parent="1" source="x3BcfAPWwikc5Mpsq-v--2" target="x3BcfAPWwikc5Mpsq-v--6">
          <mxGeometry relative="1" as="geometry">
            <mxPoint x="260" y="10" as="targetPoint" />
            <Array as="points">
              <mxPoint x="190" y="70" />
            </Array>
          </mxGeometry>
        </mxCell>
        <mxCell id="x3BcfAPWwikc5Mpsq-v--11" style="edgeStyle=orthogonalEdgeStyle;rounded=0;orthogonalLoop=1;jettySize=auto;html=1;fontStyle=0" edge="1" parent="1" source="x3BcfAPWwikc5Mpsq-v--18" target="x3BcfAPWwikc5Mpsq-v--6">
          <mxGeometry relative="1" as="geometry">
            <mxPoint x="290" y="150" as="targetPoint" />
            <mxPoint x="250" y="220" as="sourcePoint" />
          </mxGeometry>
        </mxCell>
        <mxCell id="x3BcfAPWwikc5Mpsq-v--12" style="edgeStyle=orthogonalEdgeStyle;rounded=0;orthogonalLoop=1;jettySize=auto;html=1;fontStyle=0" edge="1" parent="1" source="x3BcfAPWwikc5Mpsq-v--18" target="x3BcfAPWwikc5Mpsq-v--3">
          <mxGeometry relative="1" as="geometry">
            <mxPoint x="250" y="200" as="sourcePoint" />
            <Array as="points">
              <mxPoint x="270" y="190" />
              <mxPoint x="190" y="190" />
            </Array>
          </mxGeometry>
        </mxCell>
        <mxCell id="x3BcfAPWwikc5Mpsq-v--15" value="&lt;span&gt;Multi-Head Attention&lt;/span&gt;" style="rounded=1;whiteSpace=wrap;html=1;fillColor=#FFA95B;fontStyle=0;fontSize=11;" vertex="1" parent="1">
          <mxGeometry x="140" y="230" width="100" height="40" as="geometry" />
        </mxCell>
        <mxCell id="x3BcfAPWwikc5Mpsq-v--16" value="" style="edgeStyle=orthogonalEdgeStyle;rounded=0;orthogonalLoop=1;jettySize=auto;html=1;fontStyle=0;fontSize=11;" edge="1" parent="1" source="x3BcfAPWwikc5Mpsq-v--17" target="x3BcfAPWwikc5Mpsq-v--15">
          <mxGeometry relative="1" as="geometry" />
        </mxCell>
        <mxCell id="x3BcfAPWwikc5Mpsq-v--17" value="Normalization" style="rounded=1;whiteSpace=wrap;html=1;fontStyle=0;fillColor=#D4AAFF;fontSize=11;" vertex="1" parent="1">
          <mxGeometry x="140" y="290" width="100" height="20" as="geometry" />
        </mxCell>
        <mxCell id="x3BcfAPWwikc5Mpsq-v--18" value="" style="verticalLabelPosition=bottom;verticalAlign=top;html=1;shape=mxgraph.flowchart.summing_function;fontStyle=0" vertex="1" parent="1">
          <mxGeometry x="260" y="200" width="20" height="20" as="geometry" />
        </mxCell>
        <mxCell id="x3BcfAPWwikc5Mpsq-v--19" style="edgeStyle=orthogonalEdgeStyle;rounded=0;orthogonalLoop=1;jettySize=auto;html=1;fontStyle=0;fontSize=11;" edge="1" parent="1" source="x3BcfAPWwikc5Mpsq-v--15" target="x3BcfAPWwikc5Mpsq-v--18">
          <mxGeometry relative="1" as="geometry">
            <mxPoint x="260" y="180" as="targetPoint" />
            <Array as="points">
              <mxPoint x="190" y="210" />
            </Array>
          </mxGeometry>
        </mxCell>
        <mxCell id="x3BcfAPWwikc5Mpsq-v--20" style="edgeStyle=orthogonalEdgeStyle;rounded=0;orthogonalLoop=1;jettySize=auto;html=1;fontStyle=0" edge="1" parent="1" target="x3BcfAPWwikc5Mpsq-v--18">
          <mxGeometry relative="1" as="geometry">
            <mxPoint x="290" y="320" as="targetPoint" />
            <mxPoint x="270" y="340" as="sourcePoint" />
          </mxGeometry>
        </mxCell>
        <mxCell id="x3BcfAPWwikc5Mpsq-v--21" style="edgeStyle=orthogonalEdgeStyle;rounded=0;orthogonalLoop=1;jettySize=auto;html=1;fontStyle=0" edge="1" parent="1" target="x3BcfAPWwikc5Mpsq-v--17">
          <mxGeometry relative="1" as="geometry">
            <Array as="points">
              <mxPoint x="270" y="330" />
              <mxPoint x="190" y="330" />
            </Array>
            <mxPoint x="270" y="340" as="sourcePoint" />
          </mxGeometry>
        </mxCell>
        <mxCell id="x3BcfAPWwikc5Mpsq-v--27" value="Residual Stream" style="edgeLabel;html=1;align=center;verticalAlign=middle;resizable=0;points=[];" vertex="1" connectable="0" parent="x3BcfAPWwikc5Mpsq-v--21">
          <mxGeometry x="-0.903" y="-1" relative="1" as="geometry">
            <mxPoint x="-1" y="15" as="offset" />
          </mxGeometry>
        </mxCell>
        <mxCell id="x3BcfAPWwikc5Mpsq-v--23" value="" style="whiteSpace=wrap;html=1;aspect=fixed;" vertex="1" parent="1">
          <mxGeometry x="260" y="460" width="10" height="10" as="geometry" />
        </mxCell>
        <mxCell id="x3BcfAPWwikc5Mpsq-v--24" value="Event Type&lt;div&gt;&lt;font style=&quot;font-size: 8px;&quot;&gt;&lt;i style=&quot;&quot;&gt;{ CHAMPION_KILL, ITEM_PURCHASED, ... }&lt;/i&gt;&lt;/font&gt;&lt;/div&gt;" style="text;html=1;align=center;verticalAlign=middle;resizable=0;points=[];autosize=1;strokeColor=none;fillColor=none;" vertex="1" parent="1">
          <mxGeometry x="170" y="470" width="190" height="40" as="geometry" />
        </mxCell>
        <mxCell id="x3BcfAPWwikc5Mpsq-v--25" value="&lt;div&gt;Participant ID&lt;div&gt;&lt;font style=&quot;font-size: 8px;&quot;&gt;&lt;i&gt;{ 1, 2, 3, ..., 10 }&lt;/i&gt;&lt;/font&gt;&lt;/div&gt;&lt;/div&gt;" style="text;html=1;align=center;verticalAlign=middle;resizable=0;points=[];autosize=1;strokeColor=none;fillColor=none;" vertex="1" parent="1">
          <mxGeometry x="210" y="525" width="100" height="40" as="geometry" />
        </mxCell>
        <mxCell id="x3BcfAPWwikc5Mpsq-v--26" value="Participant ID" style="text;html=1;align=center;verticalAlign=middle;resizable=0;points=[];autosize=1;strokeColor=none;fillColor=none;" vertex="1" parent="1">
          <mxGeometry x="210" y="567" width="100" height="30" as="geometry" />
        </mxCell>
      </root>
    </mxGraphModel>
  </diagram>
</mxfile>
